<svg xmlns="http://www.w3.org/2000/svg" width="512" height="512" style="" viewBox="0 0 512 512" data-svgdocument="" id="_g6C6KCT2K-HQtdCOg9rdH" class="fl-svgdocument" x="0" y="0" xmlns:xlink="http://www.w3.org/1999/xlink"><defs id="_heCwbS7B0W6PQ-camBYKm" transform="matrix(1.1253697633598476, 0, 0, 1.1253697633598476, -71.41007953336744, 29.080447762802628)"/><path text="Company" text-anchor="middle" font-size="100" letter-spacing="0" side="left" offset="0.5" dx="0" dy="0" space="preserve" href="" font-family="Bree Serif" font-scale="contain" transform="matrix(0.9918931951693745, 0, 0, 0.9918931951693745, 257.4878397927541, 367.88416704942915)" x="0" y="0" fill="#222630" data-fl-textpath="" id="_YFa8kU6ncrEIoLq0O7A8n" d="M-171.60000000000002-55.9L-171.60000000000002-55.9Q-172.70000000000002-57.8 -179.8-57.8L-179.8-57.8Q-189.10000000000002-57.8 -193.9-51.5Q-198.70000000000002-45.2 -198.70000000000002-33.3L-198.70000000000002-33.3Q-198.70000000000002-8.6 -180.20000000000002-8.6L-180.20000000000002-8.6Q-179.90000000000003-8.6 -177.55-8.6Q-175.20000000000002-8.6 -173.10000000000002-9.25Q-171-9.9 -170.60000000000002-10.6Q-170.20000000000002-11.3 -170.20000000000002-12.8L-170.20000000000002-12.8L-170.20000000000002-20.8L-160-20.1L-160-2.8Q-167.8 1.3 -179.8 1.3L-179.8 1.3Q-195.10000000000002 1.3 -203.15-7.3Q-211.20000000000002-15.9 -211.20000000000002-32.9L-211.20000000000002-32.9Q-211.20000000000002-42.3 -208.50000000000003-49.3Q-205.8-56.3 -201.20000000000002-60.2L-201.20000000000002-60.2Q-192.20000000000002-67.7 -179.8-67.7L-179.8-67.7Q-169.8-67.7 -161-63.6L-161-63.6L-161-46.6L-171.20000000000002-45.9L-171.20000000000002-53.7Q-171.20000000000002-55.2 -171.60000000000002-55.9ZM-128.7-7.3L-128.7-7.3Q-117.8-7.3 -117.8-24.9L-117.8-24.9Q-117.8-33.8 -120.25-38.4Q-122.7-43 -128.45-43Q-134.2-43 -136.9-38.6Q-139.6-34.2 -139.6-26.6L-139.6-26.6Q-139.6-12.5 -134.4-8.9L-134.4-8.9Q-132.1-7.3 -128.7-7.3ZM-151.7-25.2L-151.7-25.2Q-151.7-32.6 -149.5-38.05Q-147.3-43.5 -143.6-46.4L-143.6-46.4Q-136.5-51.8 -127.9-51.8L-127.9-51.8Q-121.9-51.8 -117.75-49.85Q-113.6-47.9 -111.25-45.35Q-108.9-42.8 -107.25-37.95Q-105.6-33.1 -105.6-26.5L-105.6-26.5Q-105.6-12.7 -112.3-5.6Q-119 1.5 -129.45 1.5Q-139.9 1.5 -145.8-5.25Q-151.7-12 -151.7-25.2ZM-95.29999999999998-41.9L-99.49999999999999-42.2L-99.49999999999999-50.3L-82.6-50.3L-82.6-43.8Q-76.99999999999999-51.8 -67.24999999999999-51.8Q-57.499999999999986-51.8 -54.09999999999999-43.8L-54.09999999999999-43.8Q-48.499999999999986-51.8 -38.89999999999999-51.8L-38.89999999999999-51.8Q-31.69999999999999-51.8 -27.799999999999983-47.45Q-23.89999999999999-43.1 -23.89999999999999-34.4L-23.89999999999999-34.4L-23.89999999999999-8.3L-18.19999999999999-8L-18.19999999999999 0L-41.999999999999986 0L-41.999999999999986-7.6L-38.69999999999999-7.9Q-37.19999999999999-8.1 -36.54999999999998-8.75Q-35.89999999999999-9.4 -35.79999999999998-11.1L-35.79999999999998-11.1L-35.79999999999998-31.8Q-35.79999999999998-37.3 -37.04999999999998-39.95Q-38.29999999999999-42.6 -42.89999999999999-42.6Q-47.499999999999986-42.6 -49.94999999999999-39.8Q-52.39999999999999-37 -52.39999999999999-32.3L-52.39999999999999-32.3L-52.39999999999999-8.3L-46.89999999999999-8L-46.89999999999999 0L-70.49999999999999 0L-70.49999999999999-7.6L-67.19999999999999-7.9Q-65.69999999999999-8.1 -64.99999999999999-8.75Q-64.29999999999998-9.4 -64.29999999999998-11.2L-64.29999999999998-11.2L-64.29999999999998-31.8Q-64.29999999999998-37.3 -65.54999999999998-39.95Q-66.79999999999998-42.6 -71.44999999999999-42.6Q-76.1-42.6 -78.49999999999999-39.7Q-80.89999999999999-36.8 -80.89999999999999-32.5L-80.89999999999999-32.5L-80.89999999999999-8.3L-75.49999999999999-8L-75.49999999999999 0L-99.1 0L-99.1-7.6L-95.79999999999998-7.9Q-94.29999999999998-8.1 -93.6-8.75Q-92.89999999999999-9.4 -92.89999999999999-11.2L-92.89999999999999-11.2L-92.79999999999998-11.2L-92.79999999999998-38.8Q-92.79999999999998-40.5 -93.35-41.15Q-93.89999999999999-41.8 -95.29999999999998-41.9L-95.29999999999998-41.9ZM-6.69999999999998 9.5L-6.69999999999998 9.5L-6.69999999999998-38.9Q-6.69999999999998-40.6 -7.2499999999999805-41.25Q-7.79999999999998-41.9 -9.19999999999998-41.9L-9.19999999999998-41.9L-13.39999999999998-42.2L-13.39999999999998-50.3L 3.5000000000000213-50.3L 3.5000000000000213-43.8Q 5.100000000000019-46.8  9.300000000000018-49.3Q 13.500000000000021-51.8  19.30000000000002-51.8L 19.30000000000002-51.8Q 37.40000000000002-51.8  37.40000000000002-26.4L 37.40000000000002-26.4Q 37.40000000000002-12.9  31.50000000000002-5.7Q 25.600000000000023 1.5  15.500000000000021 1.5L 15.500000000000021 1.5Q 9.500000000000021 1.5  4.8000000000000185-1.4L 4.8000000000000185-1.4L 4.8000000000000185 12.4L 12.90000000000002 12.8L 12.90000000000002 20.7L-12.89999999999998 20.7L-12.89999999999998 13.1L-9.59999999999998 12.8Q-8.09999999999998 12.6 -7.399999999999981 11.95Q-6.69999999999998 11.3 -6.69999999999998 9.5ZM 25.00000000000002-25.4L 25.00000000000002-25.4Q 25.00000000000002-42.1  14.90000000000002-42.1L 14.90000000000002-42.1Q 10.70000000000002-42.1  7.750000000000021-39.55Q 4.8000000000000185-37  4.8000000000000185-33.5L 4.8000000000000185-33.5L 4.8000000000000185-10.5Q 8.60000000000002-8  14.050000000000018-8Q 19.50000000000002-8  22.25000000000002-13Q 25.00000000000002-18  25.00000000000002-25.4ZM 89.40000000000003-48.3L 89.40000000000003-48.3L 89.40000000000003-11.1Q 89.40000000000003-9.5  89.95000000000002-8.9Q 90.50000000000003-8.3  91.90000000000003-8.2L 91.90000000000003-8.2L 95.10000000000002-8L 95.10000000000002 0L 79.20000000000002 0L 79.20000000000002-5.8L 78.90000000000003-5.9Q 73.90000000000003 1.3  65.20000000000002 1.3L 65.20000000000002 1.3Q 55.00000000000003 1.3  50.10000000000002-5.2Q 45.200000000000024-11.7  45.200000000000024-23L 45.200000000000024-23Q 45.200000000000024-36.6  51.800000000000026-44.2Q 58.40000000000002-51.8  71.60000000000002-51.8L 71.60000000000002-51.8Q 80.10000000000002-51.8  89.40000000000003-48.3ZM 77.80000000000003-15.9L 77.80000000000003-15.9L 77.80000000000003-41.8Q 75.00000000000003-43.1  70.10000000000002-43.1L 70.10000000000002-43.1Q 63.40000000000002-43.1  60.40000000000002-37.7Q 57.40000000000002-32.3  57.40000000000002-23.4L 57.40000000000002-23.4Q 57.40000000000002-7.2  67.80000000000003-7.2L 67.80000000000003-7.2Q 72.20000000000002-7.2  75.00000000000003-9.85Q 77.80000000000003-12.5  77.80000000000003-15.9ZM 104.80000000000004-42L 100.60000000000004-42.3L 100.60000000000004-50.3L 117.50000000000003-50.3L 117.50000000000003-43.8Q 120.10000000000004-47.5  124.40000000000003-49.65Q 128.70000000000005-51.8  133.70000000000005-51.8L 133.70000000000005-51.8Q 141.30000000000004-51.8  145.45000000000005-47.45Q 149.60000000000002-43.1  149.60000000000002-34.4L 149.60000000000002-34.4L 149.60000000000002-8.3L 155.30000000000004-8L 155.30000000000004 0L 131.50000000000003 0L 131.50000000000003-7.6L 134.80000000000004-7.9Q 136.30000000000004-8.1  137.00000000000003-8.75Q 137.70000000000005-9.4  137.70000000000005-11.2L 137.70000000000005-11.2L 137.70000000000005-31.8Q 137.70000000000005-37.3  136.00000000000003-39.95Q 134.30000000000004-42.6  129.55000000000004-42.6Q 124.80000000000004-42.6  122.00000000000003-39.6Q 119.20000000000003-36.6  119.20000000000003-32.5L 119.20000000000003-32.5L 119.20000000000003-8.3L 124.90000000000003-8L 124.90000000000003 0L 101.10000000000004 0L 101.10000000000004-7.6L 104.40000000000003-7.9Q 105.90000000000003-8.1  106.60000000000004-8.75Q 107.30000000000004-9.4  107.30000000000004-11.2L 107.30000000000004-11.2L 107.30000000000004-38.9Q 107.30000000000004-41.9  104.80000000000004-42L 104.80000000000004-42ZM 198.00000000000003-1.9L 198.00000000000003-1.9L 198.00000000000003-9.5Q 192.50000000000003-1.7  181.80000000000004-1.7L 181.80000000000004-1.7Q 166.30000000000004-1.7  166.30000000000004-19L 166.30000000000004-19L 166.30000000000004-39.1Q 166.30000000000004-41.8  163.80000000000004-41.9L 163.80000000000004-41.9L 160.60000000000002-42.1L 160.60000000000002-50.3L 178.20000000000005-50.3L 178.20000000000005-21.6Q 178.20000000000005-16.3  179.70000000000005-13.6Q 181.20000000000005-10.9  185.90000000000003-10.9Q 190.60000000000002-10.9  193.45000000000005-13.8Q 196.30000000000004-16.7  196.30000000000004-20.8L 196.30000000000004-20.8L 196.30000000000004-38.9Q 196.30000000000004-40.6  195.75000000000003-41.25Q 195.20000000000005-41.9  193.80000000000004-41.9L 193.80000000000004-41.9L 190.60000000000002-42.1L 190.60000000000002-50.3L 208.20000000000005-50.3L 208.20000000000005-1.9Q 208.20000000000005 10.2  202.35000000000002 15.8Q 196.50000000000003 21.4  184.65000000000003 21.4Q 172.80000000000004 21.4  166.20000000000005 18.1L 166.20000000000005 18.1L 166.20000000000005 4.2L 175.70000000000005 3.4L 175.70000000000005 8.2Q 175.70000000000005 10.9  178.20000000000005 11.85Q 180.70000000000005 12.8  185.10000000000002 12.8L 185.10000000000002 12.8Q 198.00000000000003 12.8  198.00000000000003-1.9Z"/><path id="_dKll9Bvfs_SbhlEkb1iDM" fill="#222630" transform="matrix(0.9918931951693745, 0, 0, 0.9918931951693745, 256.1487889857051, 460.1195709257313)" text="Name" text-anchor="middle" font-size="100" letter-spacing="0" side="left" offset="0.5" dx="0" dy="0" space="preserve" href="" font-family="Bree Serif" font-scale="contain" x="0" y="0" data-fl-textpath="" d="M-103.40000000000002 0L-127.90000000000002 0L-127.90000000000002-8.1L-124.30000000000003-8.4Q-121.70000000000002-8.6 -121.70000000000002-11.2L-121.70000000000002-11.2L-121.70000000000002-57.7L-127.40000000000002-58L-127.40000000000002-66.5L-109.40000000000002-66.5L-81.10000000000002-20.6L-80.90000000000002-20.6L-80.90000000000002-57.7L-87.50000000000003-58L-87.50000000000003-66.5L-63.10000000000002-66.5L-63.10000000000002-58.4L-66.70000000000002-58.1Q-69.10000000000002-57.9 -69.10000000000002-55L-69.10000000000002-55L-69.10000000000002 0L-80.80000000000003 0L-109.70000000000002-46.6L-109.90000000000002-46.6L-109.90000000000002-8.8L-103.40000000000002-8.5L-103.40000000000002 0ZM-12.40000000000002-48.3L-12.40000000000002-48.3L-12.40000000000002-11.1Q-12.40000000000002-9.5 -11.850000000000023-8.9Q-11.300000000000026-8.3 -9.90000000000002-8.2L-9.90000000000002-8.2L-6.700000000000024-8L-6.700000000000024 0L-22.600000000000023 0L-22.600000000000023-5.8L-22.90000000000002-5.9Q-27.90000000000002 1.3 -36.60000000000002 1.3L-36.60000000000002 1.3Q-46.800000000000026 1.3 -51.700000000000024-5.2Q-56.60000000000002-11.7 -56.60000000000002-23L-56.60000000000002-23Q-56.60000000000002-36.6 -50.00000000000002-44.2Q-43.40000000000002-51.8 -30.200000000000024-51.8L-30.200000000000024-51.8Q-21.700000000000024-51.8 -12.40000000000002-48.3ZM-24.00000000000002-15.9L-24.00000000000002-15.9L-24.00000000000002-41.8Q-26.800000000000026-43.1 -31.700000000000024-43.1L-31.700000000000024-43.1Q-38.40000000000002-43.1 -41.40000000000002-37.7Q-44.40000000000002-32.3 -44.40000000000002-23.4L-44.40000000000002-23.4Q-44.40000000000002-7.2 -34.00000000000002-7.2L-34.00000000000002-7.2Q-29.600000000000023-7.2 -26.800000000000026-9.85Q-24.00000000000002-12.5 -24.00000000000002-15.9ZM 2.9999999999999805-41.9L-1.2000000000000197-42.2L-1.2000000000000197-50.3L 15.699999999999982-50.3L 15.699999999999982-43.8Q 21.29999999999998-51.8  31.049999999999983-51.8Q 40.79999999999998-51.8  44.19999999999998-43.8L 44.19999999999998-43.8Q 49.79999999999998-51.8  59.39999999999998-51.8L 59.39999999999998-51.8Q 66.59999999999998-51.8  70.49999999999999-47.45Q 74.39999999999998-43.1  74.39999999999998-34.4L 74.39999999999998-34.4L 74.39999999999998-8.3L 80.09999999999998-8L 80.09999999999998 0L 56.29999999999998 0L 56.29999999999998-7.6L 59.59999999999998-7.9Q 61.09999999999998-8.1  61.749999999999986-8.75Q 62.39999999999998-9.4  62.499999999999986-11.1L 62.499999999999986-11.1L 62.499999999999986-31.8Q 62.499999999999986-37.3  61.249999999999986-39.95Q 59.99999999999998-42.6  55.39999999999998-42.6Q 50.79999999999998-42.6  48.34999999999998-39.8Q 45.89999999999998-37  45.89999999999998-32.3L 45.89999999999998-32.3L 45.89999999999998-8.3L 51.39999999999998-8L 51.39999999999998 0L 27.79999999999998 0L 27.79999999999998-7.6L 31.09999999999998-7.9Q 32.59999999999998-8.1  33.29999999999998-8.75Q 33.99999999999998-9.4  33.99999999999998-11.2L 33.99999999999998-11.2L 33.99999999999998-31.8Q 33.99999999999998-37.3  32.74999999999998-39.95Q 31.49999999999998-42.6  26.84999999999998-42.6Q 22.19999999999998-42.6  19.79999999999998-39.7Q 17.39999999999998-36.8  17.39999999999998-32.5L 17.39999999999998-32.5L 17.39999999999998-8.3L 22.79999999999998-8L 22.79999999999998 0L-0.8000000000000198 0L-0.8000000000000198-7.6L 2.4999999999999805-7.9Q 3.9999999999999805-8.1  4.69999999999998-8.75Q 5.399999999999981-9.4  5.399999999999981-11.2L 5.399999999999981-11.2L 5.4999999999999805-11.2L 5.4999999999999805-38.8Q 5.4999999999999805-40.5  4.94999999999998-41.15Q 4.399999999999981-41.8  2.9999999999999805-41.9L 2.9999999999999805-41.9ZM 111.1-51.8L 111.1-51.8Q 118.6-51.8  122.99999999999999-48.15Q 127.39999999999999-44.5  127.39999999999999-37.9L 127.39999999999999-37.9Q 127.39999999999999-33.5  125.49999999999999-30.15Q 123.6-26.8  120.79999999999998-24.9Q 117.99999999999999-23  113.99999999999999-21.8L 113.99999999999999-21.8Q 107.29999999999998-19.8  98.89999999999999-19.8L 98.89999999999999-19.8Q 99.19999999999999-14.5  102.19999999999999-11.25Q 105.19999999999999-8  111.39999999999999-8Q 117.6-8  123.79999999999998-12.4L 123.79999999999998-12.4L 127.6-4.3Q 125.6-2.5  120.85-0.6Q 116.1 1.3  109.99999999999999 1.3L 109.99999999999999 1.3Q 97.79999999999998 1.3  92.1-5.45Q 86.39999999999999-12.2  86.39999999999999-24Q 86.39999999999999-35.8  92.89999999999999-43.8Q 99.39999999999999-51.8  111.1-51.8ZM 106.54999999999998-28.95Q 110.19999999999999-29.6  113.29999999999998-31.85Q 116.39999999999999-34.1  116.39999999999999-37.2L 116.39999999999999-37.2Q 116.39999999999999-43.3  110.39999999999999-43.3L 110.39999999999999-43.3Q 104.79999999999998-43.3  101.79999999999998-38.85Q 98.79999999999998-34.4  98.49999999999999-28.2L 98.49999999999999-28.2Q 102.89999999999999-28.3  106.54999999999998-28.95Z"/><g id="_oRbM73lmEEBL3DaJPTvrB" transform="matrix(0.88228940813524, 0, 0, 0.88228940813524, 29.86926196969993, 38.91822086205107)"><path id="_rgIYUgOYT9e8mamCPl5jd" d="M46.103,63.081h10.71c1.802,0,1.802-2.794,0-2.794h-10.71C44.302,60.287,44.302,63.081,46.103,63.081z" stroke="none" fill="#222630" transform="matrix(3.805525779724121, 0, 0, 3.805525779724121, 99.00273132324219, -28.328641891479492)"/><path id="_oKqXwa7651qSpgDf_tinx" d="M26.305,58.985c0,0,0.001,0.002,0.002,0.004c0.153,0.291,0.427,0.526,0.846,0.633c1.653,0.419,3.325,0.781,5.002,1.086  c1.345,0.246,2.705,0.47,4.071,0.566c1.018,0.069,2.061,0.076,3.003-0.361c0.429-0.198,0.701-0.753,0.692-1.206  c-0.035-1.789-1.121-3.452-2.235-4.774c-1.189-1.413-2.735-2.724-4.522-3.294c-1.794-0.571-4.068-0.198-5.354,1.265  c-1.307,1.486-1.671,3.444-1.683,5.372c-0.003,0.259,0.056,0.481,0.154,0.665C26.289,58.954,26.297,58.97,26.305,58.985z   M29.183,56.091c0.045-0.152,0.094-0.303,0.149-0.451c0.009-0.006,0.142-0.296,0.163-0.331c0.067-0.116,0.138-0.231,0.215-0.341  c0.025-0.024,0.145-0.165,0.161-0.181c0.041-0.04,0.345-0.275,0.245-0.215c0.1-0.066,0.202-0.129,0.31-0.183  c-0.024,0.019,0.31-0.111,0.357-0.123c0.123-0.031,0.246-0.06,0.372-0.08c-0.025,0.012,0.388-0.016,0.439-0.015  c0.061,0.001,0.402,0.048,0.323,0.026c0.232,0.049,0.46,0.114,0.682,0.198c-0.002,0.005,0.312,0.147,0.348,0.165  c0.165,0.089,0.33,0.18,0.488,0.281c0.359,0.229,0.547,0.36,0.786,0.563c0.575,0.489,1.113,1.027,1.586,1.619  c0.11,0.137,0.073,0.084,0.227,0.304c0.109,0.156,0.218,0.312,0.318,0.474c0.143,0.23,0.281,0.463,0.404,0.705  c-0.286-0.01-0.572-0.027-0.855-0.054c-0.306-0.028-0.613-0.061-0.918-0.1c-0.026-0.003-0.047-0.006-0.065-0.008  c-0.055-0.008-0.111-0.016-0.166-0.024c-0.122-0.018-0.244-0.036-0.367-0.055c-0.621-0.096-1.24-0.203-1.856-0.32  c-1.194-0.227-2.385-0.477-3.569-0.758C28.995,56.844,29.059,56.512,29.183,56.091z" stroke="none" fill="#222630" transform="matrix(3.805525779724121, 0, 0, 3.805525779724121, 101.38185119628906, -26.79580307006836)"/><path id="_aVjkw_rkf2UeL-PTgGZrO" d="M21.999,62.907c2.312,0.981,4.818,1.573,7.261,2.09c5.12,1.083,10.353,1.663,15.576,1.929  c6.72,0.342,13.493,0.238,20.186-0.482c4.176-0.451,8.361-1.099,12.414-2.226c1.305-0.362,2.627-0.758,3.873-1.302  c1.944-0.416,1.874-3.108,1.905-4.716c0.04-2.091,0.169-4.136-0.403-6.173c-0.867-3.089-2.672-6.253-5.394-8.067  c0.07-0.069,0.141-0.137,0.214-0.202c0.032-0.019,0.251-0.183,0.29-0.206c0.47-0.276,0.714-0.308,1.36-0.308h2.755  c1.803,0,1.803-2.794,0-2.794h-2.919c-1.216,0-2.356,0.421-3.265,1.169c-0.725-2.378-2.288-4.529-3.913-6.341  c-1-1.117-2.086-2.196-3.268-3.124c-1.988-1.56-4.282-2.359-6.814-2.359h-18.97c-2.301,0-4.549,0.028-6.652,1.106  c-0.934,0.479-1.693,1.153-2.463,1.849c-1.459,1.316-2.787,2.787-3.943,4.376c-0.948,1.304-1.796,2.754-2.299,4.302  c-0.891-0.699-1.994-1.09-3.167-1.09h-2.92c-1.802,0-1.802,2.794,0,2.794h2.756c0.635,0,0.904,0.02,1.359,0.308  c0.075,0.047,0.148,0.096,0.22,0.146c0.011,0.01,0.035,0.031,0.075,0.063c0.075,0.068,0.148,0.137,0.218,0.21  c-1.658,1.077-2.977,2.665-3.936,4.397c-1.187,2.147-2.066,4.634-2.086,7.11c-0.002,1.703-0.073,3.426,0.17,5.118  C20.375,61.596,20.894,62.647,21.999,62.907z M23.021,60.329c0.03,0.013,0.063,0.027,0.102,0.044  c-0.006-0.002-0.013-0.006-0.019-0.008c-0.008-0.004-0.037-0.013-0.08-0.027C23.022,60.334,23.021,60.332,23.021,60.329z   M23.084,60.52C23.17,60.622,23.13,60.585,23.084,60.52L23.084,60.52z M80.215,60.532c-0.052,0.069-0.088,0.076,0.01-0.025  C80.222,60.515,80.218,60.524,80.215,60.532z M22.841,55.367c0.002-0.22,0.01-0.44,0.03-0.66c0.007-0.089,0.017-0.177,0.027-0.266  c0.01-0.067,0.024-0.174,0.028-0.196c0.089-0.52,0.205-1.038,0.354-1.545c0.335-1.14,0.629-1.879,1.193-2.9  c0.291-0.526,0.605-1.041,0.961-1.526c0.244-0.332,0.623-0.784,1.031-1.179c0.712-0.689,1.529-1.239,2.349-1.515  c0.599-0.202,1.019-0.698,1.026-1.347c0.012-1.048,0.392-2.296,0.903-3.29c0.556-1.082,1.349-2.257,1.983-3.036  c1.012-1.242,2.125-2.427,3.346-3.467c0.052-0.045,0.095-0.096,0.144-0.145c0.07-0.07,0.143-0.139,0.218-0.205  c0.051-0.044,0.102-0.089,0.154-0.131l0.005-0.003c0.908-0.661,1.548-0.944,2.611-1.177c1.743-0.383,3.776-0.189,5.602-0.189h2.75  c0.068,0.106,0.136,0.213,0.204,0.32c2.789,4.391,5.578,8.784,8.367,13.174c-3.845,0.035-7.693,0.013-11.535-0.043  c-2.781-0.041-5.566-0.089-8.342-0.252c-0.455-0.026-0.91-0.056-1.365-0.096c-0.15-0.013-0.298-0.028-0.448-0.045  c-0.347-0.331-0.854-0.496-1.328-0.34c-0.537,0.178-1.011,0.503-1.168,1.086c-0.167,0.621,0.118,1.393,0.729,1.669  c0.604,0.274,1.243,0.329,1.9,0.394c1.983,0.197,3.986,0.242,5.977,0.296c6.767,0.182,13.543,0.184,20.311,0.045  c2.474-0.051,4.959-0.093,7.426-0.299c0.643-0.053,1.358-0.06,1.971-0.275c0.6-0.21,1.253-0.726,1.168-1.453  c-0.091-0.768-0.508-1.227-1.218-1.463c-0.475-0.156-0.982,0.01-1.33,0.341c-0.044,0.005-0.088,0.009-0.132,0.014  c-0.183,0.018-0.366,0.036-0.549,0.049c-2.037-3.095-4.073-6.189-6.11-9.284c-0.418-0.634-1.228-0.901-1.911-0.501  c-0.631,0.37-0.92,1.275-0.502,1.912c1.766,2.682,3.531,5.365,5.298,8.048c-0.125,0.005-0.25,0.01-0.374,0.013  c-1.73,0.062-3.461,0.108-5.193,0.14c-0.017-0.031-0.033-0.06-0.052-0.09c-0.215-0.338-0.429-0.676-0.643-1.013  c-2.615-4.116-5.23-8.232-7.843-12.348h10.365c0.914,0,1.796-0.03,2.649,0.198c1.058,0.28,1.93,0.695,2.88,1.397  c0.021,0.016,0.039,0.028,0.054,0.04c0.002,0.002,0.003,0.003,0.003,0.003c0.055,0.045,0.107,0.087,0.158,0.13  c0.066,0.056,0.131,0.112,0.194,0.173c0.045,0.041,0.091,0.078,0.137,0.118c1.263,1.066,2.433,2.27,3.466,3.56  c0.267,0.332,0.672,0.877,1.002,1.389c0.327,0.507,0.638,1.027,0.902,1.57c0.26,0.537,0.426,0.927,0.599,1.6  c0.172,0.669,0.196,0.818,0.204,1.466c0.008,0.649,0.426,1.146,1.026,1.347c0.472,0.159,0.997,0.418,1.556,0.818  c0.341,0.243,0.844,0.69,1.251,1.138c0.794,0.874,1.473,1.925,2.029,3.111c0.444,0.948,0.874,2.215,1.065,3.432  c0.007,0.047,0.012,0.078,0.015,0.099c0.006,0.051,0.012,0.1,0.017,0.152c0.011,0.118,0.023,0.238,0.029,0.358  c0.012,0.226,0.017,0.453,0.01,0.679c-0.028,0.884-0.036,1.768-0.054,2.651c-0.013,0.683-0.018,1.372-0.098,2.049  c-0.002,0.013-0.003,0.022-0.004,0.034c-0.003,0.018-0.008,0.039-0.014,0.07c-0.012,0.055-0.022,0.11-0.035,0.166  c-0.001,0.001-0.002,0.001-0.002,0.001c-0.125,0.051-0.398,0.162-0.505,0.202c-0.373,0.141-0.748,0.272-1.126,0.397  c-3.153,1.038-6.431,1.709-9.709,2.209c-1.276,0.195-2.224,0.32-3.579,0.468c-1.457,0.159-2.915,0.291-4.376,0.391  c-3.483,0.239-6.975,0.333-10.467,0.298c-3.331-0.034-6.662-0.175-9.981-0.47c-2.666-0.237-4.933-0.512-7.499-0.953  c-3.005-0.516-6.013-1.162-8.903-2.149c-0.307-0.106-0.615-0.215-0.918-0.332c-0.057-0.021-0.124-0.049-0.186-0.074  c-0.018-0.072-0.035-0.143-0.048-0.216c-0.005-0.027-0.034-0.234-0.038-0.24C22.78,58.378,22.839,56.864,22.841,55.367z   M34.082,47.905c-0.157,0.124-0.119,0.069-0.048,0.022C34.051,47.921,34.066,47.914,34.082,47.905z M33.896,45.557  C33.742,45.513,33.699,45.464,33.896,45.557L33.896,45.557z M69.484,45.538C69.694,45.448,69.59,45.504,69.484,45.538L69.484,45.538  z M22.641,60.209c0.124,0.038,0.173,0.044,0.221,0.075C22.56,60.189,22.142,60.057,22.641,60.209z" stroke="none" fill="#0b6e85" transform="matrix(3.805525779724121, 0, 0, 3.805525779724121, 97.91533660888672, -28.360265731811523)"/><path id="_Y5W6ERi_cpKBhxXgmN47z" d="M64.039,61.086c0.97,0.452,2.062,0.439,3.11,0.353c1.329-0.108,2.653-0.314,3.964-0.556c1.677-0.31,3.349-0.668,5.002-1.087  c0.419-0.106,0.694-0.342,0.847-0.633l0.001-0.003c0.008-0.016,0.016-0.031,0.023-0.047c0.099-0.184,0.156-0.405,0.154-0.664  c-0.011-1.895-0.351-4.07-1.767-5.462c-1.345-1.322-3.482-1.797-5.269-1.174c-1.823,0.634-3.42,1.912-4.618,3.409  c-1.06,1.324-2.104,2.9-2.139,4.658C63.338,60.334,63.611,60.887,64.039,61.086z M66.513,58.68c0.308-0.59,0.729-1.224,1.044-1.598  c0.486-0.578,1.016-1.125,1.607-1.599c0.135-0.11,0.089-0.078,0.308-0.229c0.158-0.108,0.317-0.216,0.483-0.313  c0.16-0.094,0.322-0.187,0.489-0.268c0.015-0.007,0.311-0.13,0.234-0.106c0.135-0.05,0.272-0.098,0.412-0.135  c0.055-0.014,0.421-0.074,0.333-0.074c0.138-0.011,0.275-0.017,0.413-0.011c0.103,0.004,0.206,0.01,0.309,0.019  c0.019,0.004,0.04,0.007,0.067,0.012c0.18,0.038,0.36,0.078,0.533,0.142c0.015,0.006,0.028,0.011,0.04,0.015  c0.072,0.036,0.144,0.073,0.213,0.113c0.069,0.041,0.136,0.083,0.202,0.129c0.006,0.005,0.011,0.009,0.018,0.015  c0.091,0.083,0.182,0.167,0.263,0.259c0.035,0.041,0.057,0.068,0.07,0.081c0.03,0.045,0.062,0.087,0.09,0.133  c0.09,0.145,0.178,0.293,0.251,0.448c0.012,0.027,0.022,0.048,0.03,0.066c0.028,0.073,0.055,0.147,0.08,0.222  c0.043,0.132,0.085,0.265,0.119,0.4c0.094,0.369,0.147,0.662,0.179,0.963c-1.18,0.28-2.37,0.531-3.561,0.755  c-0.616,0.116-1.235,0.226-1.856,0.322c-0.163,0.025-0.325,0.049-0.489,0.071c-0.01,0.001-0.017,0.002-0.026,0.003  c-0.067,0.01-0.134,0.018-0.2,0.026c-0.267,0.032-0.533,0.062-0.801,0.086c-0.284,0.023-0.57,0.045-0.856,0.055  C66.511,58.682,66.512,58.681,66.513,58.68z" stroke="none" fill="#222630" transform="matrix(3.805525779724121, 0, 0, 3.805525779724121, 100.5455093383789, -27.397035598754883)"/><path id="_YL5McB9A_tdTAOdY84FFy" d="M67.021,70.772v0.848c0,1.937-0.412,4.522,1.595,5.664c0.868,0.494,1.751,0.476,2.704,0.476h2.364  c1.441,0,2.824-0.912,3.235-2.331c0.192-0.663,0.147-1.358,0.147-2.039v-4.307c0-0.036-0.003-0.07-0.005-0.105  c1.276-0.332,2.556-0.701,3.765-1.233c0.697-0.307,0.853-1.311,0.5-1.911c-0.416-0.713-1.213-0.809-1.91-0.502  c0.147-0.065,0.224-0.098,0.256-0.111c-0.052,0.021-0.195,0.082-0.318,0.127c-0.368,0.139-0.74,0.266-1.116,0.384  c-1.488,0.473-3.009,0.846-4.537,1.163c-0.912,0.19-1.829,0.364-2.749,0.517c-0.548,0.092-1.097,0.18-1.648,0.26  c-0.27,0.04-0.541,0.08-0.812,0.116c-0.065,0.009-0.104,0.015-0.128,0.019c-0.018,0.001-0.037,0.004-0.06,0.007  c-0.144,0.019-0.287,0.037-0.43,0.055c-2.788,0.353-5.59,0.59-8.396,0.736c-6.749,0.347-13.547,0.278-20.28-0.331  c-4.107-0.371-7.945-0.886-12.064-1.905c-1.305-0.324-2.647-0.656-3.889-1.178c-0.704-0.296-1.537,0.313-1.718,0.976  c-0.222,0.806,0.274,1.424,0.975,1.719c1.255,0.528,2.595,0.908,3.944,1.222v5.295c0,1.431,0.93,2.803,2.331,3.209  c0.768,0.222,1.616,0.147,2.407,0.147c0.666,0,1.337,0.027,2.002,0c1.73-0.069,3.227-1.361,3.299-3.148  c0.051-1.267,0.01-2.542,0.007-3.811c2.656,0.303,5.324,0.503,7.989,0.628c6.709,0.315,13.467,0.236,20.156-0.405  C65.43,70.946,66.226,70.863,67.021,70.772z M74.272,69.63v4.773c0,0.051-0.026,0.182-0.026,0.198  c-0.087,0.237-0.245,0.363-0.486,0.363h-3.389c-0.224,0-0.097,0.021-0.276-0.047c0.17,0.065-0.058-0.076-0.063-0.052  c-0.069-0.087-0.197-0.247-0.122-0.113c-0.102-0.178-0.095-0.088-0.095-0.305v-3.775c0-0.091-0.009-0.179-0.023-0.26  C71.293,70.197,72.789,69.941,74.272,69.63z M33.601,74.754c0.09-0.132-0.048,0.03-0.122,0.115c-0.02-0.013-0.229,0.097-0.062,0.049  c-0.191,0.055-0.044,0.047-0.276,0.047h-2.788c-0.2,0-0.403,0.008-0.603,0c-0.229-0.008-0.42-0.124-0.492-0.374  c-0.004-0.041-0.019-0.147-0.019-0.188v-4.712c0.005,0.001,0.01,0.002,0.016,0.003c1.479,0.29,2.967,0.537,4.46,0.751  c-0.011,0.073-0.019,0.148-0.019,0.229v3.775C33.696,74.653,33.71,74.592,33.601,74.754z" stroke="none" fill="#222630" transform="matrix(3.805525779724121, 0, 0, 3.805525779724121, 98.1603775024414, -27.67100715637207)"/><path id="_O4MuTC4HJtLQDMRJCNWzu" fill="#222630" d="M24.562,63.61c-1.87,0-3.628-0.728-4.95-2.05c-2.729-2.73-2.729-7.17,0-9.9l14.116-14.116   c-2.121-5.344-1.598-11.506,1.467-16.403c3.246-5.19,9.01-8.288,15.419-8.288c0.206,0,0.413,0.003,0.618,0.01   c1.202,0.039,2.265,0.786,2.707,1.904c0.442,1.117,0.18,2.387-0.669,3.236l-8.178,8.176c-0.403,0.403-0.403,1.061,0.001,1.465   l8.435,8.435c0.391,0.391,1.074,0.391,1.465,0l8.213-8.213c0.569-0.569,1.321-0.883,2.119-0.883c1.606,0,2.933,1.258,3.019,2.864   c0.269,5.092-1.644,10.078-5.246,13.68c-3.397,3.398-7.916,5.27-12.723,5.27c0,0,0,0-0.001,0c-2.319,0-4.636-0.454-6.777-1.321   L29.512,61.56C28.19,62.882,26.433,63.61,24.562,63.61z M48.637,16.979c-4.207,0.542-7.875,2.805-10.051,6.283   c-2.591,4.142-2.852,9.445-0.681,13.84l0.636,1.286l-16.101,16.1c-1.169,1.17-1.169,3.073,0,4.243c1.133,1.132,3.11,1.133,4.243,0   L42.77,42.646l1.292,0.652c1.941,0.98,4.125,1.498,6.313,1.498c3.738,0,7.252-1.455,9.895-4.098c2.231-2.231,3.629-5.146,4-8.24   l-6.448,6.448c-0.951,0.951-2.216,1.475-3.561,1.475s-2.609-0.523-3.561-1.474l-8.436-8.436c-1.962-1.963-1.962-5.157-0.001-7.12   L48.637,16.979z" stroke="none" transform="matrix(2.4318108558654785, 0, 0, 2.4318108558654785, 64.84931945800781, -18.02600860595703)"/></g></svg>